<!-- https://github.com/jekyll/minima/blob/master/assets/minima-social-icons.liquid
        https://github.com/jekyll/minima/blob/master/_includes/svg_symbol.html
          https://github.com/jekyll/minima/blob/master/_includes/social-icons/gitlab.svg -->

<svg xmlns="http://www.w3.org/2000/svg" xmlns:xlink="http://www.w3.org/1999/xlink">
  <symbol id="gitlab" fill-rule="evenodd" clip-rule="evenodd" stroke-linejoin="round" stroke-miterlimit="1.414" viewBox="0 0 16 16">
    <path d="M1.07,6.337L8,15.219L0.405,9.706C0.3,9.63,0.227,9.529,0.186,9.404c-0.041-0.125-0.041-0.25,0-0.372L1.07,6.337z M5.112,6.337h5.775L8,15.219L5.112,6.337z M3.38,0.982l1.732,5.355H1.07l1.732-5.355c0.047-0.134,0.143-0.201,0.289-0.201 S3.333,0.848,3.38,0.982z M14.93,6.337l0.884,2.695c0.041,0.123,0.041,0.247,0,0.372S15.7,9.63,15.595,9.706L8,15.219L14.93,6.337z M14.93,6.337h-4.042l1.733-5.355c0.046-0.134,0.143-0.201,0.288-0.201c0.146,0,0.243,0.067,0.289,0.201L14.93,6.337z"/>
  </symbol>
</svg>
